<svg width="393" height="344" viewBox="0 0 393 344" fill="none" xmlns="http://www.w3.org/2000/svg">
<path d="M74.8271 315.183C64.172 324.178 64.2707 338.459 65.6519 344.476H393V248.016C392.053 243.519 386.686 239.435 384.121 237.956C382.463 229.908 375.143 223.951 371.69 221.978C374.768 218.191 374.748 211.523 374.354 208.663C376.485 199.668 372.084 193.08 369.618 190.91C370.565 190.2 371.394 189.43 371.69 189.134C375.952 184.164 373.466 180.751 371.69 179.666C374.768 176.115 374.748 167.337 374.354 163.392C381.457 156.764 377.313 146.231 374.354 141.792C375.301 124.276 363.698 118.516 357.779 117.826C352.807 108.831 340.908 109.146 335.581 110.428C329.425 104.511 318.612 107.963 313.975 110.428C307.108 111.375 301.84 115.754 300.064 117.826C289.882 111.908 279.05 112.204 274.906 113.091C264.725 104.096 253.103 104.215 248.564 105.398C237.672 99.2437 224.492 102.834 219.263 105.398C210.502 99.2437 197.459 102.834 192.033 105.398C182.088 103.268 173.485 109.639 170.427 113.091C163.56 113.091 159.673 118.615 158.588 121.376C156.163 113.091 149.585 110.428 142.605 113.091C132.198 108.109 127.029 103.41 116.221 113.091C99.3929 113.091 96.3388 126.081 97.4241 131.605C87.2425 137.996 88.2445 155.995 89.0338 160.729C89.2706 172.091 99.5902 176.115 104.72 176.707C98.801 179.784 98.7023 187.852 99.3929 191.502C89.2114 202.39 90.0204 211.819 91.6976 215.173C83.4103 229.612 88.2445 243.085 91.6976 248.016C85.7781 267.663 96.1372 278.493 102.057 281.452C96.1372 284.765 95.052 291.906 95.2493 295.062C80.0954 298.14 75.3204 309.758 74.8271 315.183Z" fill="white"/>
<path d="M172.795 194.756C173.505 193.336 175.656 190.811 176.643 189.726C177.826 188.345 180.964 186.176 184.042 188.543C187.12 190.91 188.482 194.066 188.482 195.052C188.718 197.419 186.706 200.378 185.818 202.449C184.93 204.521 181.279 205.408 179.306 205.408C177.175 205.645 176.051 203.929 173.979 201.858C171.907 199.786 171.907 196.532 172.795 194.756Z" fill="#5F8BC5"/>
<path d="M244.421 198.899C244.421 198.899 247.085 195.348 247.973 194.756C248.86 194.165 250.044 193.928 251.228 194.165C252.412 194.401 254.484 194.165 255.668 194.756C256.852 195.348 257.148 198.011 257.148 198.011C257.148 199.431 258.924 200.97 258.924 202.745C258.924 204.521 259.319 207.435 258.135 207.731C256.951 208.027 255.733 210.08 254.845 210.08C253.957 210.08 251.228 211.03 249.748 211.03C248.268 211.03 246.197 210.143 245.901 209.551C245.605 208.959 245.131 206.474 244.421 206C243.71 205.527 243.336 203.633 243.237 202.745C243.336 201.562 244.421 198.899 244.421 198.899Z" fill="#5F8BC5"/>
<path d="M202.215 218.539C199.792 218.946 199.433 221.09 197.065 222.274C196.769 222.57 194.993 224.379 194.993 225.233C194.993 226.712 194.767 228.731 196.106 230.756C197.445 232.782 199.395 232.636 200.335 234.516C202.229 238.303 208.312 236.772 208.904 236.772C209.496 236.772 213.107 233.695 218.079 235.589C223.009 237.467 223.691 236.784 224.279 236.196L224.294 236.181C224.886 235.589 230.214 232.926 231.102 231.151C231.99 229.375 231.694 227.6 231.398 227.304C231.102 227.008 231.398 227.008 231.102 226.712C230.806 226.416 227.846 220.499 225.182 219.315C222.519 218.132 221.011 219.009 218.662 217.54C217.214 216.635 213.046 217.244 212.553 217.54C209.475 219.197 209.734 217.951 207.854 217.54C205.974 217.129 204.638 218.132 202.215 218.539Z" fill="#5F8BC5"/>
<path d="M199.521 255.862C200.252 254.326 202.02 254.504 202.932 254.952C204.757 255.257 207.764 255.464 209.608 255.773C211.914 256.158 213.958 256.707 215.997 256.545C218.398 256.355 219.936 256.02 221.905 254.869C223.481 253.948 224.116 252.278 227.238 253.096C228.967 253.385 228.64 254.278 228.87 255.737C229.157 257.562 226.996 258.088 225.218 259.863C223.795 261.283 221.502 262.597 220.845 262.98C217.146 263.842 214.409 262.496 211.334 263.166C208.247 263.839 207.135 262.729 205.043 261.818C203.938 261.337 202.225 260.36 200.961 259.655C199.696 258.95 198.79 257.398 199.521 255.862Z" fill="#FE8A8A"/>
<path d="M220.5 314.5C206.114 322.616 184.782 338.493 189 344H393V303.044C392.734 302.58 384.009 301.305 384.009 301.305C377.615 286.928 374.352 288.937 368.691 288.551C361.698 276.376 351.375 279.178 347.712 279.275C341.052 272.318 330.36 270.483 317.05 277.166C303.297 268.573 285.996 275.507 282.888 279.275C266.105 278.579 259.706 290.202 259.817 296.869C243.5 288.551 219.945 308.316 220.5 314.5Z" fill="#EFF4FC"/>
<path d="M168.492 303.935C201.5 287 230.112 311.714 233 318.716V344H0C5 327 20.5138 318.327 29.5 318.716C37.2025 299.734 56 297 67.5 303.935C75.3629 297.192 104.5 284 124.684 303.935C137 293 155 291.5 168.492 303.935Z" fill="#EFF4FC"/>
<g filter="url(#filter0_dd_27_2)">
<mask id="path-6-inside-1_27_2" fill="white">
<path fill-rule="evenodd" clip-rule="evenodd" d="M70.3783 84.8456C62.3456 84.8456 55.6803 79.3573 54.4161 72.1623C53.1683 72.5205 51.8524 72.7121 50.4928 72.7121C42.4887 72.7121 36 66.0725 36 57.8822C36 53.453 37.8977 49.4772 40.9064 46.7598C37.8977 44.0425 36 40.0667 36 35.6375C36 27.4471 42.4887 20.8076 50.4928 20.8076C51.5683 20.8076 52.6165 20.9275 53.6252 21.1549C57.6045 13.3242 65.4255 8 74.4228 8C78.7927 8 82.8852 9.25595 86.3947 11.445C88.9815 9.29638 92.3326 8 95.9935 8C101.248 8 105.865 10.6709 108.499 14.6993C109.874 14.288 111.333 14.0668 112.846 14.0668C119.604 14.0668 125.307 18.4852 127.094 24.5276C132.569 26.659 136.439 31.8862 136.439 37.9967C136.439 39.905 136.061 41.7272 135.375 43.3958C136.063 45.1751 136.439 47.1041 136.439 49.1192C136.439 55.8338 132.263 61.593 126.316 64.0406C126.762 65.5066 127.001 67.0597 127.001 68.6676C127.001 77.6025 119.607 84.8456 110.486 84.8456C107.212 84.8456 104.161 83.9123 101.594 82.3024C99.0264 83.909 95.9414 84.8456 92.6231 84.8456C88.3149 84.8456 84.3999 83.2668 81.5007 80.6927C78.6015 83.2668 74.6866 84.8456 70.3783 84.8456Z"/>
</mask>
<path d="M54.4161 72.1623L56.386 71.8162L56.0012 69.6265L53.8643 70.24L54.4161 72.1623ZM40.9064 46.7598L42.247 48.2441L43.8904 46.7598L42.247 45.2756L40.9064 46.7598ZM53.6252 21.1549L53.1853 23.1059L54.7033 23.4481L55.4082 22.0609L53.6252 21.1549ZM86.3947 11.445L85.3363 13.142L86.5617 13.9063L87.6726 12.9835L86.3947 11.445ZM108.499 14.6993L106.825 15.7939L107.642 17.0432L109.072 16.6154L108.499 14.6993ZM127.094 24.5276L125.176 25.0949L125.454 26.0355L126.369 26.3914L127.094 24.5276ZM135.375 43.3958L133.526 42.6355L133.223 43.3728L133.51 44.1163L135.375 43.3958ZM126.316 64.0406L125.555 62.1912L123.874 62.8832L124.403 64.6226L126.316 64.0406ZM101.594 82.3024L102.656 80.6081L101.595 79.9424L100.533 80.607L101.594 82.3024ZM81.5007 80.6927L82.8286 79.1972L81.5007 78.0182L80.1728 79.1972L81.5007 80.6927ZM52.4463 72.5084C53.8915 80.7336 61.4516 86.8456 70.3783 86.8456V82.8456C63.2397 82.8456 57.4691 77.9809 56.386 71.8162L52.4463 72.5084ZM50.4928 74.7121C52.0412 74.7121 53.5428 74.4938 54.968 74.0847L53.8643 70.24C52.7938 70.5472 51.6636 70.7121 50.4928 70.7121V74.7121ZM34 57.8822C34 67.1335 41.341 74.7121 50.4928 74.7121V70.7121C43.6363 70.7121 38 65.0116 38 57.8822H34ZM39.5659 45.2756C36.1488 48.3618 34 52.8719 34 57.8822H38C38 54.034 39.6465 50.5927 42.247 48.2441L39.5659 45.2756ZM34 35.6375C34 40.6478 36.1488 45.1579 39.5659 48.2441L42.247 45.2756C39.6465 42.927 38 39.4857 38 35.6375H34ZM50.4928 18.8076C41.341 18.8076 34 26.3862 34 35.6375H38C38 28.5081 43.6363 22.8076 50.4928 22.8076V18.8076ZM54.065 19.2038C52.9131 18.9441 51.7174 18.8076 50.4928 18.8076V22.8076C51.4192 22.8076 52.3199 22.9108 53.1853 23.1059L54.065 19.2038ZM74.4228 6C64.6019 6 56.1293 11.8124 51.8422 20.2488L55.4082 22.0609C59.0796 14.836 66.249 10 74.4228 10V6ZM87.4532 9.74808C83.64 7.36961 79.183 6 74.4228 6V10C78.4025 10 82.1303 11.1423 85.3363 13.142L87.4532 9.74808ZM95.9935 6C91.8534 6 88.053 7.46768 85.1168 9.90653L87.6726 12.9835C89.9101 11.1251 92.8118 10 95.9935 10V6ZM110.173 13.6047C107.177 9.02386 101.938 6 95.9935 6V10C100.558 10 104.552 12.3179 106.825 15.7939L110.173 13.6047ZM112.846 12.0668C111.137 12.0668 109.485 12.3168 107.926 12.7832L109.072 16.6154C110.262 16.2593 111.529 16.0668 112.846 16.0668V12.0668ZM129.012 23.9604C126.973 17.0657 120.488 12.0668 112.846 12.0668V16.0668C118.721 16.0668 123.641 19.9048 125.176 25.0949L129.012 23.9604ZM138.439 37.9967C138.439 31.0122 134.016 25.076 127.82 22.6639L126.369 26.3914C131.122 28.242 134.439 32.7603 134.439 37.9967H138.439ZM137.225 44.1561C138.008 42.2512 138.439 40.1711 138.439 37.9967H134.439C134.439 39.639 134.114 41.2032 133.526 42.6355L137.225 44.1561ZM138.439 49.1192C138.439 46.8533 138.015 44.6803 137.241 42.6753L133.51 44.1163C134.11 45.6699 134.439 47.3549 134.439 49.1192H138.439ZM127.077 65.8901C133.729 63.1522 138.439 56.6912 138.439 49.1192H134.439C134.439 54.9764 130.796 60.0339 125.555 62.1912L127.077 65.8901ZM129.001 68.6676C129.001 66.8601 128.732 65.111 128.23 63.4587L124.403 64.6226C124.792 65.9023 125.001 67.2593 125.001 68.6676H129.001ZM110.486 86.8456C120.673 86.8456 129.001 78.7457 129.001 68.6676H125.001C125.001 76.4592 118.542 82.8456 110.486 82.8456V86.8456ZM100.531 83.9968C103.409 85.8017 106.828 86.8456 110.486 86.8456V82.8456C107.597 82.8456 104.912 82.0229 102.656 80.6081L100.531 83.9968ZM92.6231 86.8456C96.3206 86.8456 99.7726 85.8014 102.655 83.9978L100.533 80.607C98.2801 82.0167 95.5623 82.8456 92.6231 82.8456V86.8456ZM80.1728 82.1883C83.4357 85.0852 87.8222 86.8456 92.6231 86.8456V82.8456C88.8075 82.8456 85.3642 81.4485 82.8286 79.1972L80.1728 82.1883ZM70.3783 86.8456C75.1792 86.8456 79.5658 85.0852 82.8286 82.1883L80.1728 79.1972C77.6372 81.4485 74.1939 82.8456 70.3783 82.8456V86.8456Z" fill="white" mask="url(#path-6-inside-1_27_2)"/>
</g>
<path d="M68.908 51.0234C69.2088 50.9688 69.3592 50.8184 69.3592 50.5723C69.3592 50.3171 69.2771 50.0345 69.1131 49.7246C68.9581 49.4056 68.7257 49.1048 68.4158 48.8223C67.6046 48.0931 66.5063 47.7285 65.1209 47.7285C64.4373 47.7285 63.7993 47.8424 63.2068 48.0703C62.5779 47.7513 62.0766 47.2454 61.7029 46.5527C61.3292 45.86 61.1424 45.1126 61.1424 44.3105C61.1424 42.2142 62.0174 40.5964 63.7674 39.457C65.2713 38.4818 67.1261 37.9941 69.3318 37.9941C70.9725 37.9941 72.3533 38.1719 73.4744 38.5273C74.5955 38.8737 75.5115 39.3203 76.2225 39.8672C76.4321 40.4688 76.5369 41.0931 76.5369 41.7402C76.5369 42.3874 76.4503 42.9753 76.2771 43.5039C76.104 44.0326 75.8533 44.4564 75.5252 44.7754C75.2153 44.5475 74.6547 44.3151 73.8435 44.0781C73.0323 43.8411 72.2941 43.7227 71.6287 43.7227C70.9633 43.7227 70.5167 43.7637 70.2889 43.8457C70.0701 43.9277 69.9607 44.0553 69.9607 44.2285C69.9607 44.3105 69.9744 44.388 70.0018 44.4609C70.3208 44.3789 70.7309 44.3379 71.2322 44.3379C73.0096 44.3379 74.4588 44.7572 75.5799 45.5957C76.9015 46.5983 77.5623 48.1022 77.5623 50.1074C77.5623 51.8757 76.8468 53.3431 75.4158 54.5098C73.8663 55.7585 71.7837 56.3828 69.1678 56.3828C67.7277 56.3828 66.479 56.2734 65.4217 56.0547C64.3644 55.8451 63.3344 55.4714 62.3318 54.9336C61.6482 53.9401 61.3064 52.9329 61.3064 51.9121C61.3064 50.8822 61.6573 50.0299 62.3592 49.3555C63.061 48.681 63.9223 48.3438 64.9432 48.3438C65.9731 48.3438 66.8116 48.5534 67.4588 48.9727C68.115 49.3919 68.5981 50.0755 68.908 51.0234ZM89.6367 38.1172C90.7305 38.1172 91.6784 38.4134 92.4805 39.0059C93.2826 39.5983 93.6836 40.4414 93.6836 41.5352V49.1367C93.6836 51.4518 92.9772 53.2383 91.5645 54.4961C90.1517 55.7448 88.1966 56.3691 85.6992 56.3691C83.2109 56.3691 81.2741 55.7539 79.8887 54.5234C78.4759 53.293 77.7695 51.4974 77.7695 49.1367V39.3887C78.8451 38.5319 80.0892 38.1035 81.502 38.1035C82.6868 38.1035 83.6257 38.418 84.3184 39.0469C85.0111 39.6667 85.3574 40.61 85.3574 41.877V49.8477C85.4577 49.9206 85.5716 49.957 85.6992 49.957C85.8359 49.957 85.9316 49.9251 85.9863 49.8613C86.0501 49.7884 86.082 49.6562 86.082 49.4648V41.8633C86.082 41.2891 86.0547 40.8333 86 40.4961C85.9453 40.1589 85.8359 39.8216 85.6719 39.4844C86.7656 38.5729 88.0872 38.1172 89.6367 38.1172ZM94.2873 53.4707V39.7715C94.2873 39.2975 94.6656 38.9056 95.4221 38.5957C96.1877 38.2767 97.0855 38.1172 98.1154 38.1172C98.6988 38.1172 99.2456 38.1901 99.7561 38.3359C100.276 38.4727 100.672 38.6504 100.946 38.8691C101.319 39.3431 101.661 39.8262 101.971 40.3184C102.281 40.8105 102.978 41.959 104.063 43.7637C104.163 43.7637 104.254 43.7318 104.336 43.668C104.418 43.6042 104.459 43.5085 104.459 43.3809C104.459 43.2441 104.345 42.9844 104.117 42.6016L102.641 40.0586V39.3066C103.106 38.9238 103.671 38.6276 104.336 38.418C105.002 38.2083 105.69 38.1035 106.401 38.1035C107.558 38.1035 108.492 38.3132 109.203 38.7324C110.033 39.2337 110.447 40.0176 110.447 41.084V54.0312C110.447 54.8151 110.074 55.3848 109.326 55.7402C108.688 56.0592 107.836 56.2188 106.77 56.2188C106.177 56.2188 105.599 56.1549 105.033 56.0273C104.477 55.8997 104.04 55.7357 103.721 55.5352C103.074 54.7057 102.431 53.776 101.793 52.7461L100.399 50.4219C100.134 50.4583 100.002 50.5996 100.002 50.8457C100.002 51.0007 100.134 51.2969 100.399 51.7344L102.108 54.4961V55.2207C101.05 55.9043 99.8563 56.2461 98.5256 56.2461C97.204 56.2461 96.1649 56.0046 95.4084 55.5215C94.661 55.0384 94.2873 54.3548 94.2873 53.4707Z" fill="white"/>
<defs>
<filter id="filter0_dd_27_2" x="28" y="0" width="116.439" height="92.8456" filterUnits="userSpaceOnUse" color-interpolation-filters="sRGB">
<feFlood flood-opacity="0" result="BackgroundImageFix"/>
<feColorMatrix in="SourceAlpha" type="matrix" values="0 0 0 0 0 0 0 0 0 0 0 0 0 0 0 0 0 0 127 0" result="hardAlpha"/>
<feOffset dx="-8" dy="-8"/>
<feComposite in2="hardAlpha" operator="out"/>
<feColorMatrix type="matrix" values="0 0 0 0 1 0 0 0 0 1 0 0 0 0 1 0 0 0 0.25 0"/>
<feBlend mode="normal" in2="BackgroundImageFix" result="effect1_dropShadow_27_2"/>
<feColorMatrix in="SourceAlpha" type="matrix" values="0 0 0 0 0 0 0 0 0 0 0 0 0 0 0 0 0 0 127 0" result="hardAlpha"/>
<feOffset dx="8" dy="8"/>
<feComposite in2="hardAlpha" operator="out"/>
<feColorMatrix type="matrix" values="0 0 0 0 1 0 0 0 0 1 0 0 0 0 1 0 0 0 0.25 0"/>
<feBlend mode="normal" in2="effect1_dropShadow_27_2" result="effect2_dropShadow_27_2"/>
<feBlend mode="normal" in="SourceGraphic" in2="effect2_dropShadow_27_2" result="shape"/>
</filter>
</defs>
</svg>
