<svg width="1500" height="1358" viewBox="0 0 1500 1358" fill="none" xmlns="http://www.w3.org/2000/svg">
<path d="M227.308 1240.73C184.688 1276.71 185.083 1333.84 190.607 1357.9H1500V972.065C1496.21 954.075 1474.74 937.742 1464.48 931.824C1457.85 899.631 1428.57 875.802 1414.76 867.912C1427.07 852.763 1426.99 826.093 1425.41 814.652C1433.94 778.672 1416.34 752.319 1406.47 743.639C1410.26 740.799 1413.58 737.721 1414.76 736.538C1431.81 716.654 1421.86 703.004 1414.76 698.664C1427.07 684.462 1426.99 649.35 1425.41 633.569C1453.83 607.057 1437.25 564.923 1425.41 547.17C1429.2 477.103 1382.79 454.064 1359.12 451.302C1339.23 415.322 1291.63 416.584 1270.32 421.713C1245.7 398.042 1202.45 411.85 1183.9 421.713C1156.43 425.501 1135.36 443.017 1128.26 451.302C1087.53 427.631 1044.2 428.815 1027.62 432.365C986.898 396.385 940.41 396.859 922.257 401.593C878.69 376.975 825.967 391.335 805.051 401.593C770.008 376.975 717.837 391.335 696.132 401.593C656.353 393.071 621.941 418.557 609.708 432.365C582.241 432.365 566.693 454.458 562.352 465.505C552.653 432.365 526.338 421.713 498.421 432.365C456.791 412.436 436.115 393.639 392.883 432.365C325.572 432.365 313.355 484.325 317.696 506.418C276.97 531.983 280.978 603.98 284.135 622.917C285.082 668.365 326.361 684.462 346.882 686.829C323.204 699.138 322.809 731.409 325.572 746.006C284.846 789.561 288.082 827.277 294.79 840.691C261.641 898.448 280.978 952.339 294.79 972.065C271.112 1050.65 312.549 1093.97 336.227 1105.81C312.549 1119.06 308.208 1147.62 308.997 1160.25C248.381 1172.56 229.281 1219.03 227.308 1240.73Z" fill="white"/>
<path d="M619.179 759.025C622.021 753.344 630.624 743.245 634.57 738.905C639.306 733.382 651.855 724.702 664.167 734.171C676.48 743.639 681.926 756.264 681.926 760.209C682.873 769.677 674.823 781.513 671.271 789.798C667.719 798.083 653.118 801.633 645.225 801.633C636.701 802.58 632.202 795.716 623.915 787.431C615.628 779.146 615.628 766.127 619.179 759.025Z" fill="#5F8BC5"/>
<path d="M905.683 775.595C905.683 775.595 916.338 761.393 919.89 759.025C923.441 756.658 928.177 755.711 932.913 756.658C937.648 757.605 945.936 756.658 950.671 759.025C955.407 761.393 956.591 772.045 956.591 772.045C956.591 777.726 963.694 783.88 963.694 790.981C963.694 798.083 965.274 809.739 960.538 810.923C955.803 812.106 950.933 820.321 947.381 820.321C943.829 820.321 932.913 824.121 926.993 824.121C921.074 824.121 912.786 820.57 911.602 818.203C910.419 815.836 908.524 805.894 905.683 804C902.842 802.107 901.342 794.532 900.947 790.981C901.342 786.247 905.683 775.595 905.683 775.595Z" fill="#5F8BC5"/>
<path d="M736.859 854.155C727.166 855.784 725.73 864.362 716.259 869.096C715.075 870.279 707.972 877.517 707.972 880.931C707.972 886.849 707.068 894.925 712.424 903.026C717.779 911.126 725.581 910.544 729.341 918.063C736.916 933.213 761.247 927.09 763.615 927.09C765.983 927.09 780.426 914.781 800.316 922.356C820.037 929.866 822.765 927.137 825.118 924.783L825.178 924.723C827.546 922.356 848.856 911.704 852.407 904.602C855.959 897.501 854.775 890.4 853.591 889.216C852.407 888.033 853.591 888.033 852.407 886.849C851.224 885.665 839.385 861.994 828.729 857.26C818.074 852.526 812.046 856.034 802.647 850.159C796.857 846.539 780.185 848.975 778.212 850.159C765.899 856.787 766.934 851.802 759.415 850.159C751.897 848.516 746.552 852.526 736.859 854.155Z" fill="#5F8BC5"/>
<path d="M726.084 1003.45C729.007 997.306 736.078 998.014 739.728 999.809C747.028 1001.03 759.056 1001.86 766.433 1003.09C775.655 1004.63 783.831 1006.83 791.986 1006.18C801.593 1005.42 807.742 1004.08 815.621 999.475C821.925 995.793 824.464 989.113 836.951 992.385C843.868 993.542 842.56 997.112 843.479 1002.95C844.629 1010.25 835.982 1012.35 828.87 1019.45C823.18 1025.13 814.007 1030.39 811.38 1031.92C796.584 1035.37 785.635 1029.98 773.337 1032.66C760.986 1035.36 756.539 1030.91 748.17 1027.27C743.752 1025.35 736.9 1021.44 731.842 1018.62C726.784 1015.8 723.161 1009.59 726.084 1003.45Z" fill="#FE8A8A"/>
<path d="M841.603 1238C786.696 1270.46 705.275 1333.97 721.374 1356H1500V1192.18C1498.98 1190.32 1465.68 1185.22 1465.68 1185.22C1441.28 1127.71 1428.82 1135.75 1407.22 1134.2C1380.53 1085.51 1341.12 1096.71 1327.14 1097.1C1301.72 1069.27 1260.92 1061.93 1210.12 1088.67C1157.62 1054.29 1091.59 1082.03 1079.72 1097.1C1015.67 1094.32 991.245 1140.81 991.669 1167.48C929.389 1134.2 839.485 1213.26 841.603 1238Z" fill="#EFF4FC"/>
<path d="M643.098 1195.74C769.084 1128 878.288 1226.86 889.313 1254.86V1356H0C19.084 1288 78.2968 1253.31 112.595 1254.86C141.994 1178.94 213.74 1168 257.634 1195.74C287.645 1168.77 398.855 1116 475.893 1195.74C522.901 1152 591.603 1146 643.098 1195.74Z" fill="#EFF4FC"/>
<g filter="url(#filter0_dd_1676_2472)">
<mask id="path-6-inside-1_1676_2472" fill="white">
<path fill-rule="evenodd" clip-rule="evenodd" d="M235.215 314.408C204.556 314.408 179.116 294.238 174.291 267.796C169.528 269.113 164.506 269.817 159.316 269.817C128.766 269.817 104 245.417 104 215.317C104 199.04 111.243 184.429 122.727 174.442C111.243 164.456 104 149.845 104 133.568C104 103.468 128.766 79.0679 159.316 79.0679C163.421 79.0679 167.422 79.5084 171.272 80.3442C186.46 51.5664 216.311 32 250.652 32C267.331 32 282.951 36.6156 296.346 44.6604C306.22 36.7642 319.01 32 332.983 32C353.039 32 370.659 41.8155 380.713 56.62C385.96 55.1086 391.531 54.2954 397.304 54.2954C423.1 54.2954 444.866 70.5333 451.687 92.7392C472.584 100.572 487.353 119.782 487.353 142.238C487.353 149.251 485.913 155.948 483.295 162.08C485.918 168.619 487.353 175.708 487.353 183.113C487.353 207.789 471.415 228.955 448.718 237.949C450.419 243.337 451.333 249.044 451.333 254.953C451.333 287.789 423.112 314.408 388.299 314.408C375.802 314.408 364.155 310.978 354.358 305.062C344.559 310.966 332.784 314.408 320.119 314.408C303.675 314.408 288.733 308.606 277.667 299.146C266.601 308.606 251.659 314.408 235.215 314.408Z"/>
</mask>
<path d="M174.291 267.796L182.161 266.36L180.59 257.755L172.159 260.086L174.291 267.796ZM122.727 174.442L127.976 180.479L134.918 174.442L127.976 168.406L122.727 174.442ZM171.272 80.3442L169.575 88.1621L175.511 89.4507L178.347 84.0782L171.272 80.3442ZM296.346 44.6604L292.227 51.5187L296.997 54.3834L301.343 50.9081L296.346 44.6604ZM380.713 56.62L374.095 61.1145L377.354 65.9129L382.927 64.3074L380.713 56.62ZM451.687 92.7392L444.04 95.0883L445.195 98.8493L448.88 100.23L451.687 92.7392ZM483.295 162.08L475.938 158.939L474.638 161.984L475.87 165.058L483.295 162.08ZM448.718 237.949L445.77 230.512L438.846 233.256L441.089 240.359L448.718 237.949ZM354.358 305.062L358.493 298.213L354.362 295.719L350.229 298.209L354.358 305.062ZM277.667 299.146L282.865 293.065L277.667 288.621L272.469 293.065L277.667 299.146ZM166.421 269.232C172.029 299.969 201.216 322.408 235.215 322.408V306.408C207.896 306.408 186.202 288.507 182.161 266.36L166.421 269.232ZM159.316 277.817C165.232 277.817 170.971 277.014 176.422 275.507L172.159 260.086C168.085 261.212 163.779 261.817 159.316 261.817V277.817ZM96 215.317C96 249.947 124.46 277.817 159.316 277.817V261.817C133.072 261.817 112 240.887 112 215.317H96ZM117.477 168.406C104.338 179.832 96 196.605 96 215.317H112C112 201.474 118.148 189.026 127.976 180.479L117.477 168.406ZM96 133.568C96 152.279 104.338 169.053 117.477 180.479L127.976 168.406C118.148 159.859 112 147.411 112 133.568H96ZM159.316 71.0679C124.46 71.0679 96 98.9382 96 133.568H112C112 107.998 133.072 87.0679 159.316 87.0679V71.0679ZM172.969 72.5262C168.564 71.5702 163.995 71.0679 159.316 71.0679V87.0679C162.847 87.0679 166.279 87.4467 169.575 88.1621L172.969 72.5262ZM250.652 24C213.176 24 180.689 45.3604 164.197 76.6101L178.347 84.0782C192.23 57.7724 219.446 40 250.652 40V24ZM300.465 37.8022C285.866 29.0345 268.829 24 250.652 24V40C265.834 40 280.036 44.1967 292.227 51.5187L300.465 37.8022ZM332.983 24C317.175 24 302.627 29.3937 291.35 38.4128L301.343 50.9081C309.812 44.1347 320.845 40 332.983 40V24ZM387.331 52.1255C375.774 35.107 355.664 24 332.983 24V40C350.415 40 365.545 48.5241 374.095 61.1145L387.331 52.1255ZM397.304 46.2954C390.778 46.2954 384.461 47.2151 378.499 48.9326L382.927 64.3074C387.459 63.0022 392.285 62.2954 397.304 62.2954V46.2954ZM459.335 90.3901C451.429 64.6546 426.432 46.2954 397.304 46.2954V62.2954C419.769 62.2954 438.303 76.412 444.04 95.0883L459.335 90.3901ZM495.353 142.238C495.353 116.102 478.179 94.1256 454.495 85.2482L448.88 100.23C466.989 107.018 479.353 123.462 479.353 142.238H495.353ZM490.653 165.221C493.683 158.121 495.353 150.359 495.353 142.238H479.353C479.353 148.144 478.143 153.774 475.938 158.939L490.653 165.221ZM495.353 183.113C495.353 174.664 493.714 166.565 490.72 159.102L475.87 165.058C478.122 170.672 479.353 176.752 479.353 183.113H495.353ZM451.665 245.387C477.094 235.309 495.353 211.399 495.353 183.113H479.353C479.353 204.18 465.735 222.6 445.77 230.512L451.665 245.387ZM459.333 254.953C459.333 248.214 458.29 241.694 456.346 235.54L441.089 240.359C442.549 244.979 443.333 249.875 443.333 254.953H459.333ZM388.299 322.408C427.083 322.408 459.333 292.642 459.333 254.953H443.333C443.333 282.936 419.141 306.408 388.299 306.408V322.408ZM350.222 311.91C361.252 318.57 374.327 322.408 388.299 322.408V306.408C377.278 306.408 367.058 303.385 358.493 298.213L350.222 311.91ZM320.119 322.408C334.239 322.408 347.441 318.569 358.487 311.914L350.229 298.209C341.677 303.362 331.33 306.408 320.119 306.408V322.408ZM272.469 305.227C285 315.939 301.791 322.408 320.119 322.408V306.408C305.559 306.408 292.466 301.272 282.865 293.065L272.469 305.227ZM235.215 322.408C253.543 322.408 270.334 315.939 282.865 305.227L272.469 293.065C262.868 301.272 249.774 306.408 235.215 306.408V322.408Z" fill="white" mask="url(#path-6-inside-1_1676_2472)"/>
</g>
<path d="M226.228 181.894C227.431 181.675 228.032 181.073 228.032 180.089C228.032 179.068 227.704 177.938 227.048 176.698C226.428 175.422 225.499 174.219 224.259 173.089C221.014 170.172 216.621 168.714 211.079 168.714C208.345 168.714 205.793 169.17 203.423 170.081C200.907 168.805 198.902 166.782 197.407 164.011C195.913 161.24 195.165 158.25 195.165 155.042C195.165 146.657 198.665 140.185 205.665 135.628C211.681 131.727 219.1 129.776 227.923 129.776C234.486 129.776 240.009 130.487 244.493 131.909C248.978 133.295 252.642 135.081 255.486 137.269C256.324 139.675 256.743 142.172 256.743 144.761C256.743 147.349 256.397 149.701 255.704 151.815C255.012 153.93 254.009 155.625 252.696 156.901C251.457 155.99 249.215 155.06 245.97 154.112C242.725 153.164 239.772 152.69 237.111 152.69C234.449 152.69 232.663 152.854 231.751 153.183C230.876 153.511 230.439 154.021 230.439 154.714C230.439 155.042 230.493 155.352 230.603 155.644C231.879 155.315 233.519 155.151 235.525 155.151C242.634 155.151 248.431 156.828 252.915 160.183C258.202 164.193 260.845 170.209 260.845 178.229C260.845 185.302 257.983 191.172 252.259 195.839C246.061 200.834 237.73 203.331 227.267 203.331C221.506 203.331 216.512 202.894 212.282 202.019C208.053 201.18 203.933 199.685 199.923 197.534C197.189 193.56 195.821 189.532 195.821 185.448C195.821 181.328 197.225 177.92 200.032 175.222C202.84 172.524 206.285 171.175 210.368 171.175C214.488 171.175 217.842 172.013 220.431 173.69C223.056 175.368 224.988 178.102 226.228 181.894ZM309.143 130.269C313.518 130.269 317.309 131.453 320.518 133.823C323.726 136.193 325.33 139.565 325.33 143.94V174.347C325.33 183.607 322.505 190.753 316.854 195.784C311.202 200.779 303.382 203.276 293.393 203.276C283.439 203.276 275.692 200.815 270.15 195.894C264.499 190.972 261.674 183.789 261.674 174.347V135.354C265.976 131.927 270.952 130.214 276.604 130.214C281.343 130.214 285.098 131.472 287.869 133.987C290.64 136.466 292.025 140.24 292.025 145.308V177.19C292.426 177.482 292.882 177.628 293.393 177.628C293.939 177.628 294.322 177.5 294.541 177.245C294.796 176.953 294.924 176.425 294.924 175.659V145.253C294.924 142.956 294.814 141.133 294.596 139.784C294.377 138.435 293.939 137.086 293.283 135.737C297.658 132.091 302.945 130.269 309.143 130.269ZM327.745 191.683V136.886C327.745 134.99 329.258 133.422 332.284 132.183C335.347 130.907 338.938 130.269 343.057 130.269C345.391 130.269 347.578 130.56 349.62 131.144C351.698 131.69 353.284 132.401 354.378 133.276C355.873 135.172 357.24 137.104 358.479 139.073C359.719 141.042 362.508 145.636 366.847 152.854C367.248 152.854 367.612 152.727 367.94 152.472C368.268 152.216 368.432 151.834 368.432 151.323C368.432 150.776 367.977 149.737 367.065 148.206L361.159 138.034V135.026C363.018 133.495 365.279 132.31 367.94 131.472C370.602 130.633 373.354 130.214 376.198 130.214C380.828 130.214 384.565 131.052 387.409 132.729C390.727 134.735 392.386 137.87 392.386 142.136V193.925C392.386 197.06 390.891 199.339 387.901 200.761C385.349 202.037 381.94 202.675 377.675 202.675C375.305 202.675 372.99 202.42 370.729 201.909C368.505 201.399 366.755 200.743 365.479 199.94C362.891 196.623 360.32 192.904 357.768 188.784L352.19 179.487C351.133 179.633 350.604 180.198 350.604 181.183C350.604 181.802 351.133 182.987 352.19 184.737L359.026 195.784V198.683C354.797 201.417 350.021 202.784 344.698 202.784C339.412 202.784 335.255 201.818 332.229 199.886C329.24 197.953 327.745 195.219 327.745 191.683Z" fill="white"/>
<defs>
<filter id="filter0_dd_1676_2472" x="72" y="0" width="447.354" height="346.408" filterUnits="userSpaceOnUse" color-interpolation-filters="sRGB">
<feFlood flood-opacity="0" result="BackgroundImageFix"/>
<feColorMatrix in="SourceAlpha" type="matrix" values="0 0 0 0 0 0 0 0 0 0 0 0 0 0 0 0 0 0 127 0" result="hardAlpha"/>
<feOffset dx="-32" dy="-32"/>
<feComposite in2="hardAlpha" operator="out"/>
<feColorMatrix type="matrix" values="0 0 0 0 1 0 0 0 0 1 0 0 0 0 1 0 0 0 0.25 0"/>
<feBlend mode="normal" in2="BackgroundImageFix" result="effect1_dropShadow_1676_2472"/>
<feColorMatrix in="SourceAlpha" type="matrix" values="0 0 0 0 0 0 0 0 0 0 0 0 0 0 0 0 0 0 127 0" result="hardAlpha"/>
<feOffset dx="32" dy="32"/>
<feComposite in2="hardAlpha" operator="out"/>
<feColorMatrix type="matrix" values="0 0 0 0 1 0 0 0 0 1 0 0 0 0 1 0 0 0 0.25 0"/>
<feBlend mode="normal" in2="effect1_dropShadow_1676_2472" result="effect2_dropShadow_1676_2472"/>
<feBlend mode="normal" in="SourceGraphic" in2="effect2_dropShadow_1676_2472" result="shape"/>
</filter>
</defs>
</svg>
