<svg width="9" height="8" viewBox="0 0 9 8" fill="none" xmlns="http://www.w3.org/2000/svg">
<path d="M0.286684 1.06716L3.89289 7.37976C4.09219 7.72864 4.19185 7.90308 4.32186 7.96167C4.43527 8.01278 4.56473 8.01278 4.67814 7.96167C4.80816 7.90308 4.90781 7.72864 5.10711 7.37976L8.71332 1.06716C8.91334 0.71702 9.01335 0.541952 8.99857 0.398266C8.98568 0.272941 8.92089 0.159056 8.82032 0.0849557C8.70503 -1.2666e-07 8.50542 0 8.1062 0H0.893799C0.49458 0 0.29497 -1.2666e-07 0.179676 0.0849557C0.0791142 0.159056 0.0143243 0.272941 0.0014315 0.398266C-0.01335 0.541952 0.0866614 0.717021 0.286684 1.06716Z" fill="#DEE2E6"/>
</svg>
