<svg width="25" height="24" viewBox="0 0 25 24" fill="none" xmlns="http://www.w3.org/2000/svg">
<path d="M21.6667 10H3.66675M16.6667 2V6M8.66675 2V6M11.1667 14L12.6667 13V18M11.4167 18H13.9167M8.46675 22H16.8667C18.5469 22 19.387 22 20.0287 21.673C20.5932 21.3854 21.0521 20.9265 21.3398 20.362C21.6667 19.7202 21.6667 18.8802 21.6667 17.2V8.8C21.6667 7.11984 21.6667 6.27976 21.3398 5.63803C21.0521 5.07354 20.5932 4.6146 20.0287 4.32698C19.387 4 18.5469 4 16.8667 4H8.46675C6.78659 4 5.94651 4 5.30478 4.32698C4.74029 4.6146 4.28135 5.07354 3.99373 5.63803C3.66675 6.27976 3.66675 7.11984 3.66675 8.8V17.2C3.66675 18.8802 3.66675 19.7202 3.99373 20.362C4.28135 20.9265 4.74029 21.3854 5.30478 21.673C5.94651 22 6.78659 22 8.46675 22Z" stroke="#4970FB" stroke-linecap="round" stroke-linejoin="round"/>
</svg>
