<svg width="22" height="22" viewBox="0 0 22 22" fill="none" xmlns="http://www.w3.org/2000/svg">
<path d="M3.33325 12.5578L4.9079 18.8564C4.95218 19.0335 4.97433 19.1221 5.00052 19.1994C5.25642 19.9549 5.93677 20.4861 6.73177 20.5511C6.81315 20.5578 6.90445 20.5578 7.08704 20.5578C7.31569 20.5578 7.43002 20.5578 7.52633 20.5485C8.47825 20.4561 9.23159 19.7028 9.32391 18.7509C9.33325 18.6546 9.33325 18.5402 9.33325 18.3116V4.0578M17.8333 12.0578C19.7663 12.0578 21.3333 10.4908 21.3333 8.5578C21.3333 6.62481 19.7663 5.0578 17.8333 5.0578M9.58325 4.0578H5.83325C3.34797 4.0578 1.33325 6.07252 1.33325 8.55781C1.33325 11.0431 3.34797 13.0578 5.83325 13.0578H9.58325C11.3497 13.0578 13.5105 14.0047 15.1775 14.9134C16.1501 15.4436 16.6363 15.7087 16.9548 15.6697C17.2502 15.6335 17.4735 15.5009 17.6466 15.2589C17.8333 14.998 17.8333 14.4758 17.8333 13.4315V3.68409C17.8333 2.6398 17.8333 2.11765 17.6466 1.85669C17.4735 1.6147 17.2502 1.4821 16.9548 1.44593C16.6363 1.40693 16.1501 1.672 15.1775 2.20216C13.5105 3.11092 11.3497 4.0578 9.58325 4.0578Z" stroke="#4970FB" stroke-linecap="round" stroke-linejoin="round"/>
</svg>
