<svg width="25" height="24" viewBox="0 0 25 24" fill="none" xmlns="http://www.w3.org/2000/svg">
<path d="M21.6667 10H3.66669M16.6667 2V6M8.66669 2V6M11.1667 14L12.6667 13V18M11.4167 18H13.9167M8.46669 22H16.8667C18.5468 22 19.3869 22 20.0287 21.673C20.5931 21.3854 21.0521 20.9265 21.3397 20.362C21.6667 19.7202 21.6667 18.8802 21.6667 17.2V8.8C21.6667 7.11984 21.6667 6.27976 21.3397 5.63803C21.0521 5.07354 20.5931 4.6146 20.0287 4.32698C19.3869 4 18.5468 4 16.8667 4H8.46669C6.78653 4 5.94645 4 5.30472 4.32698C4.74023 4.6146 4.28129 5.07354 3.99367 5.63803C3.66669 6.27976 3.66669 7.11984 3.66669 8.8V17.2C3.66669 18.8802 3.66669 19.7202 3.99367 20.362C4.28129 20.9265 4.74023 21.3854 5.30472 21.673C5.94645 22 6.78653 22 8.46669 22Z" stroke="#1F2937" stroke-linecap="round" stroke-linejoin="round"/>
</svg>
