<svg width="22" height="22" viewBox="0 0 22 22" fill="none" xmlns="http://www.w3.org/2000/svg">
<path d="M3.33332 12.5578L4.90796 18.8563C4.95224 19.0335 4.97439 19.1221 5.00058 19.1994C5.25648 19.9549 5.93683 20.4861 6.73183 20.5511C6.81322 20.5578 6.90451 20.5578 7.0871 20.5578C7.31575 20.5578 7.43008 20.5578 7.52639 20.5484C8.47831 20.4561 9.23165 19.7028 9.32397 18.7508C9.33332 18.6545 9.33332 18.5402 9.33332 18.3116V4.05777M17.8333 12.0578C19.7663 12.0578 21.3333 10.4908 21.3333 8.55777C21.3333 6.62478 19.7663 5.05777 17.8333 5.05777M9.58331 4.05777H5.83331C3.34803 4.05777 1.33331 6.07249 1.33331 8.55778C1.33331 11.0431 3.34803 13.0578 5.83331 13.0578H9.58332C11.3497 13.0578 13.5106 14.0047 15.1776 14.9134C16.1501 15.4436 16.6364 15.7086 16.9549 15.6696C17.2502 15.6335 17.4735 15.5009 17.6466 15.2589C17.8333 14.9979 17.8333 14.4758 17.8333 13.4315V3.68406C17.8333 2.63977 17.8333 2.11762 17.6466 1.85666C17.4735 1.61467 17.2502 1.48207 16.9549 1.4459C16.6364 1.40689 16.1501 1.67197 15.1776 2.20213C13.5106 3.11089 11.3497 4.05777 9.58331 4.05777Z" stroke="#1F2937" stroke-linecap="round" stroke-linejoin="round"/>
</svg>
